<?xml version="1.0" encoding="UTF-8" standalone="no"?>
<svg width="47px" height="51px" viewBox="0 0 47 51" version="1.1" xmlns="http://www.w3.org/2000/svg" xmlns:xlink="http://www.w3.org/1999/xlink">
    <!-- Generator: Sketch 47.1 (45422) - http://www.bohemiancoding.com/sketch -->
    <title>logo</title>
    <desc>Created with Sketch.</desc>
    <defs>
        <polygon id="path-1" points="46.35892 0 0 0 0 50.9313212 46.35892 50.9313212"></polygon>
    </defs>
    <g id="Page-1" stroke="none" stroke-width="1" fill="none" fill-rule="evenodd">
        <g id="Header" transform="translate(-170.000000, -343.000000)">
            <g id="desktop-nav-hover" transform="translate(0.000000, 328.000000)">
                <g id="logo" transform="translate(170.000000, 15.000000)">
                    <g>
                        <mask id="mask-2" fill="white">
                            <use xlink:href="#path-1"></use>
                        </mask>
                        <g id="Clip-2"></g>
                        <path d="M29.90892,21.3716848 L27.1656867,21.1384727 L27.1656867,35.6984727 L23.0782533,36.4217455 L23.0688533,20.7776242 L19.5939867,20.4703515 L19.5939867,14.7361697 L29.90892,16.5388364 L29.90892,21.3716848 Z M37.6936867,33.8564121 L35.2684867,34.2771394 L34.98492,32.1545939 L32.6223867,32.4618667 L32.3262867,34.7971394 L29.2007867,35.3502303 L32.2949533,16.989503 L35.2324533,17.5000485 L37.6936867,33.8564121 Z M34.55252,28.5681697 L33.90392,22.9616242 L33.7613533,22.9616242 L33.1033533,28.6532606 L34.55252,28.5681697 Z M21.0384533,50.9313212 C35.0240867,50.9313212 46.35892,39.5291394 46.35892,25.465503 C46.35892,11.4002909 35.0240867,-0.000315151515 21.0384533,-0.000315151515 C12.26982,-0.000315151515 4.54458667,4.48271515 -0.000313333333,11.2962909 L7.01678667,12.5332606 L8.94848667,27.3138667 C8.95475333,27.2886545 9.08792,27.3044121 9.08792,27.3044121 L11.2060533,13.2675636 L18.2278533,14.4966545 L18.2278533,37.2805333 L13.7957533,38.0573818 L13.7957533,28.2672 C13.7957533,28.2672 13.9602533,24.0504727 13.86312,23.3287758 C13.86312,23.3287758 13.67042,23.333503 13.6672867,23.3177455 L11.0227533,38.5537455 L6.62042,39.3305939 L3.38368667,22.9190788 L3.18942,22.904897 C3.12048667,23.4989576 3.42598667,28.6485333 3.42598667,28.6485333 L3.42598667,39.8915636 L0.532353333,40.4005333 C5.13522,46.7807758 12.60352,50.9313212 21.0384533,50.9313212 L21.0384533,50.9313212 Z" id="Fill-1" fill="#FFFFFF" mask="url(#mask-2)"></path>
                    </g>
                </g>
            </g>
        </g>
    </g>
</svg>